<mxfile host="app.diagrams.net" modified="2023-10-06T21:48:28.981Z" agent="Mozilla/5.0 (Windows NT 10.0; Win64; x64) AppleWebKit/537.36 (KHTML, like Gecko) Chrome/117.0.0.0 Safari/537.36 Edg/117.0.2045.55" etag="NBGKsg0az8NxKvxp-eUK" version="22.0.4" type="device">
  <diagram name="Page-1" id="hmsFM0hN7dfMMpRHbVr-">
    <mxGraphModel dx="1056" dy="562" grid="1" gridSize="10" guides="1" tooltips="1" connect="1" arrows="1" fold="1" page="1" pageScale="1" pageWidth="827" pageHeight="1169" math="0" shadow="0">
      <root>
        <mxCell id="0" />
        <mxCell id="1" parent="0" />
        <mxCell id="9rDGt2Pl-7aIeRDOpwq_-1" value="" style="endArrow=none;html=1;rounded=0;fillColor=#f8cecc;strokeColor=#FFCC99;strokeWidth=2;" parent="1" edge="1">
          <mxGeometry width="50" height="50" relative="1" as="geometry">
            <mxPoint x="100" y="730" as="sourcePoint" />
            <mxPoint x="460" y="730" as="targetPoint" />
          </mxGeometry>
        </mxCell>
        <mxCell id="_ICgYgzvTzafuJ7pVZ1F-2" value="&lt;b&gt;&lt;font style=&quot;font-size: 18px;&quot;&gt;Hardware&lt;/font&gt;&lt;/b&gt;" style="rounded=0;whiteSpace=wrap;html=1;fillColor=#FF8000;strokeColor=#FFCC99;" vertex="1" parent="1">
          <mxGeometry x="140" y="740" width="280" height="40" as="geometry" />
        </mxCell>
        <mxCell id="_ICgYgzvTzafuJ7pVZ1F-3" value="&lt;b&gt;&lt;font style=&quot;font-size: 13px;&quot;&gt;Drivers&lt;/font&gt;&lt;/b&gt;" style="rounded=0;whiteSpace=wrap;html=1;fillColor=#FF8000;strokeColor=#FFCC99;" vertex="1" parent="1">
          <mxGeometry x="140" y="690" width="190" height="30" as="geometry" />
        </mxCell>
        <mxCell id="_ICgYgzvTzafuJ7pVZ1F-5" value="&lt;b&gt;&lt;font style=&quot;font-size: 13px;&quot;&gt;Libraries&lt;/font&gt;&lt;/b&gt;" style="rounded=0;whiteSpace=wrap;html=1;fillColor=#FF8000;strokeColor=#FFCC99;" vertex="1" parent="1">
          <mxGeometry x="350" y="570" width="70" height="150" as="geometry" />
        </mxCell>
        <mxCell id="_ICgYgzvTzafuJ7pVZ1F-22" style="edgeStyle=orthogonalEdgeStyle;rounded=0;orthogonalLoop=1;jettySize=auto;html=1;entryX=0.5;entryY=0;entryDx=0;entryDy=0;strokeColor=#FF8000;" edge="1" parent="1" source="_ICgYgzvTzafuJ7pVZ1F-6" target="_ICgYgzvTzafuJ7pVZ1F-3">
          <mxGeometry relative="1" as="geometry" />
        </mxCell>
        <mxCell id="_ICgYgzvTzafuJ7pVZ1F-6" value="&lt;b&gt;&lt;font style=&quot;font-size: 13px;&quot;&gt;Application Layer&lt;/font&gt;&lt;/b&gt;" style="rounded=0;whiteSpace=wrap;html=1;fillColor=#FF8000;strokeColor=#FFCC99;" vertex="1" parent="1">
          <mxGeometry x="140" y="630" width="190" height="40" as="geometry" />
        </mxCell>
        <mxCell id="_ICgYgzvTzafuJ7pVZ1F-8" value="" style="endArrow=none;html=1;rounded=0;fillColor=#f8cecc;strokeColor=#FFCC99;strokeWidth=2;" edge="1" parent="1">
          <mxGeometry width="50" height="50" relative="1" as="geometry">
            <mxPoint x="100" y="559.62" as="sourcePoint" />
            <mxPoint x="460" y="559.62" as="targetPoint" />
          </mxGeometry>
        </mxCell>
        <mxCell id="_ICgYgzvTzafuJ7pVZ1F-9" value="&lt;b&gt;&lt;font style=&quot;font-size: 18px;&quot;&gt;Application&lt;/font&gt;&lt;/b&gt;" style="rounded=0;whiteSpace=wrap;html=1;fillColor=#FF8000;strokeColor=#FFCC99;" vertex="1" parent="1">
          <mxGeometry x="140" y="510" width="280" height="40" as="geometry" />
        </mxCell>
        <mxCell id="_ICgYgzvTzafuJ7pVZ1F-21" style="edgeStyle=orthogonalEdgeStyle;rounded=0;orthogonalLoop=1;jettySize=auto;html=1;entryX=0.5;entryY=0;entryDx=0;entryDy=0;strokeColor=#FF8000;" edge="1" parent="1" source="_ICgYgzvTzafuJ7pVZ1F-10" target="_ICgYgzvTzafuJ7pVZ1F-6">
          <mxGeometry relative="1" as="geometry" />
        </mxCell>
        <mxCell id="_ICgYgzvTzafuJ7pVZ1F-10" value="&lt;b&gt;&lt;font style=&quot;font-size: 13px;&quot;&gt;Tasks&lt;br&gt;&lt;/font&gt;&lt;/b&gt;" style="rounded=0;whiteSpace=wrap;html=1;fillColor=#FF8000;strokeColor=#FFCC99;dashed=1;dashPattern=12 12;" vertex="1" parent="1">
          <mxGeometry x="140" y="570" width="190" height="40" as="geometry" />
        </mxCell>
        <mxCell id="_ICgYgzvTzafuJ7pVZ1F-12" style="edgeStyle=orthogonalEdgeStyle;rounded=0;orthogonalLoop=1;jettySize=auto;html=1;strokeColor=#FF8000;" edge="1" parent="1" source="_ICgYgzvTzafuJ7pVZ1F-6">
          <mxGeometry relative="1" as="geometry">
            <mxPoint x="350" y="650" as="targetPoint" />
          </mxGeometry>
        </mxCell>
        <mxCell id="_ICgYgzvTzafuJ7pVZ1F-13" style="edgeStyle=orthogonalEdgeStyle;rounded=0;orthogonalLoop=1;jettySize=auto;html=1;entryX=0.5;entryY=0;entryDx=0;entryDy=0;strokeColor=#FF8000;" edge="1" parent="1" source="_ICgYgzvTzafuJ7pVZ1F-9" target="_ICgYgzvTzafuJ7pVZ1F-10">
          <mxGeometry relative="1" as="geometry">
            <Array as="points">
              <mxPoint x="235" y="550" />
              <mxPoint x="235" y="550" />
            </Array>
          </mxGeometry>
        </mxCell>
        <mxCell id="_ICgYgzvTzafuJ7pVZ1F-19" style="edgeStyle=orthogonalEdgeStyle;rounded=0;orthogonalLoop=1;jettySize=auto;html=1;entryX=0.339;entryY=0;entryDx=0;entryDy=0;entryPerimeter=0;strokeColor=#FF8000;" edge="1" parent="1" source="_ICgYgzvTzafuJ7pVZ1F-3" target="_ICgYgzvTzafuJ7pVZ1F-2">
          <mxGeometry relative="1" as="geometry" />
        </mxCell>
        <mxCell id="_ICgYgzvTzafuJ7pVZ1F-20" style="edgeStyle=orthogonalEdgeStyle;rounded=0;orthogonalLoop=1;jettySize=auto;html=1;entryX=0;entryY=0.906;entryDx=0;entryDy=0;entryPerimeter=0;strokeColor=#FF8000;" edge="1" parent="1" source="_ICgYgzvTzafuJ7pVZ1F-3" target="_ICgYgzvTzafuJ7pVZ1F-5">
          <mxGeometry relative="1" as="geometry" />
        </mxCell>
        <mxCell id="_ICgYgzvTzafuJ7pVZ1F-23" style="edgeStyle=orthogonalEdgeStyle;rounded=0;orthogonalLoop=1;jettySize=auto;html=1;entryX=0;entryY=0.133;entryDx=0;entryDy=0;entryPerimeter=0;strokeColor=#FF8000;" edge="1" parent="1" source="_ICgYgzvTzafuJ7pVZ1F-10" target="_ICgYgzvTzafuJ7pVZ1F-5">
          <mxGeometry relative="1" as="geometry" />
        </mxCell>
      </root>
    </mxGraphModel>
  </diagram>
</mxfile>
